<?xml version="1.0" standalone="no"?>
<!DOCTYPE svg PUBLIC "-//W3C//DTD SVG 1.1//EN" "http://www.w3.org/Graphics/SVG/1.1/DTD/svg11.dtd">
<svg xmlns="http://www.w3.org/2000/svg">
<metadata>Generated by Fontastic.me</metadata>
<defs>
<font id="titan-mini" horiz-adv-x="512">
<font-face font-family="titan-mini" units-per-em="512" ascent="480" descent="-32"/>
<missing-glyph horiz-adv-x="512" />

<glyph unicode="&#98;" d="M487 0l-462 0 0 159c0 30 18 87 87 87l288 0c69 0 87-57 87-87l0-86-29 0 0 86c0 6-2 59-58 59l-288 0c-56 0-58-53-58-59l0-131 433 0z m-231 274c-65 0-118 53-118 119 0 66 53 119 118 119 65 0 119-53 119-119 0-66-54-119-119-119z m0 210c-50 0-90-41-90-91 0-50 40-91 90-91 50 0 90 41 90 91 0 50-40 91-90 91z"/>
<glyph unicode="&#103;" d="M50 508l458-458-46-46-458 458z m412 0l46-46-458-458-46 46z"/>
<glyph unicode="&#97;" d="M508 4l-504 0 0 504 504 0 0-456-16 0 0 440-472 0 0-472 488 0z m-447 45l-12 12 108 107 95-47 101 200 110-165-14-9-94 142-95-190-100 50z m97 248c-31 0-57 26-57 57 0 31 26 57 57 57 32 0 57-26 57-57 0-31-25-57-57-57z m0 98c-22 0-40-19-40-41 0-22 18-41 40-41 23 0 41 19 41 41 0 22-18 41-41 41z"/>
<glyph unicode="&#99;" d="M136 21c-3 0-73 1-73 73l0 122c0 3 2 32 33 32 30 0 32-29 32-32l0-9 0 0 0-81 17 0 0 98 0 0 0 195c0 18 14 32 32 32 17 0 32-14 32-31l0-1 0 0 0-195-41 0 0-17 261 0 0 17-40 0 0 155c0 17 14 32 32 32 18 0 32-15 32-32l0-329 17 0 0 329c0 27-22 49-49 49-12 0-24-5-32-12l0 3c0 27-22 49-50 49-12 0-23-4-32-12l0 4c0 27-22 49-49 49-27 0-49-22-49-49l0-4c-9 8-20 12-32 12-27 0-49-22-49-49l0-165c-8 7-18 11-32 11-39 0-50-32-50-49l0-122c0-89 89-90 90-90l334 0 0 17z m203 430c18 0 33-14 33-32l0-195-65 0 0 195c0 18 15 32 32 32z m-113 9c0 18 14 32 32 32 18 0 32-14 32-32l0-236-64 0z"/>
<glyph unicode="&#100;" d="M404 446c-27 0-49-22-49-49l0-63c-9 7-20 12-32 12-17 0-32-9-41-22-9 13-23 22-40 22-13 0-24-5-33-12l0 125c0 27-22 49-49 49-27 0-49-22-49-49l0-218-15 0c-20 0-36-17-36-37l0-137 0 0c3-36 33-63 69-63l324 0 0 17-324 0c-27 0-50 20-52 47l0 136c0 11 8 20 19 20l137 0 0-23c0-4-1-33-32-33l-41 0-1-16c1 0 24-3 46-15 28-15 43-37 43-65l0-8 17 0 0 8c0 41-25 66-53 80 11 3 19 8 25 14l5 0c17 0 31 9 40 22 9-13 24-22 41-22 27 0 49 22 49 49l0 9 29 0 0 17-29 0 0 156c0 18 15 32 32 32 18 0 32-14 32-32l0-347 17 0 0 347c0 27-22 49-49 49z m-276-205l0 218c0 18 15 32 32 32 18 0 32-14 32-32l0-218-64 0z m119-57c2 6 3 12 3 17l0 40-41 0 0 56c0 17 15 32 33 32 17 0 32-15 32-32 0 0 0 0 0 0l0-82c0 0 0 0 0 0 0-16-12-29-27-31z m108 57l0-26c0-17-14-32-32-32-18 0-32 15-32 32 0 0 0 0 0 0l0 82c0 0 0 0 0 0 0 17 14 32 32 32 18 0 32-15 32-32z"/>
<glyph unicode="&#101;" d="M506 8l-500 0 0 500 500 0 0-451-16 0 0 435-468 0 0-468 484 0z m-341 94l0 312 216-154-9-13-191 136 0-250 151 108 10-13z"/>
<glyph unicode="&#105;" d="M132 98c-33 0-59 26-59 58 0 33 26 59 59 59 32 0 58-26 58-59 0-32-26-58-58-58z m0 103c-25 0-46-20-46-45 0-25 21-45 46-45 25 0 45 20 45 45 0 25-20 45-45 45z m253-103c-33 0-59 26-59 58 0 33 26 59 59 59 32 0 58-26 58-59 0-32-26-58-58-58z m0 103c-25 0-46-20-46-45 0-25 21-45 46-45 24 0 45 20 45 45 0 25-21 45-45 45z m45-38l55 0 0-13-55 0z m-253 0l162 0 0-13-162 0z m-90-13l-60 0 0 40-22 0 0 59 22 0 0 143 458 0 0-143 22 0 0-59-36 0 0 13 23 0 0 33-23 0 0 143-431 0 0-143-22 0 0-33 22 0 0-40 47 0z m359 117l-81 0 0 91 81 0 0-58-13 0 0 45-54 0 0-65 67 0z m-102 0l-228 0 0 91 228 0 0-58-13 0 0 45-202 0 0-65 215 0z m-292 91l51 0 0-13-51 0z m0-26l51 0 0-14-51 0z m0-27l51 0 0-13-51 0z"/>
<glyph unicode="&#106;" d="M406 94l-33 33-3 19-21 12-53-14-15 8-21-19-1-37-39 15-19 37-16-6-39 27-68 11-32 26-34 65-7 116 16-2 4 16 249 0 38-16-5-16 18 5 35-8-22-24-2-41 1 0 12 52 27-11 13-37 63 40 16 41 28-14 11-42-50-53-20-24 7-41-14-2-7 47 24 29 45 48-7 29-10 4-12-31-82-52-16 48-6 2-12-51-25 8 2 56 10 11-8 2-40-12 9 29-24 10-235 0-5-17-11 1 6-96 31-60 27-22 68-11 35-25 21 8 21-43 16-6 1 23 33 29 19-9 53 14 32-18 3-21 14-15 3 7-21 49 26 28 10-9-19-22 19-46z"/>
<glyph unicode="&#107;" d="M153 23l-146 0 0 279 146 0z m-132 15l118 0 0 249-118 0z m484-15l-190 0 0 191 190 0 0-147-14 0 0 132-162 0 0-161 176 0z m-176 0l-190 0 0 459 234-94 0-189-44 0z m-176 15l162 0 0 176 44 0 0 164-206 82z m-14 264l234 0 0-15-234 0z m0 44l234 0 0-15-234 0z m0-132l190 0 0-15-190 0z m0 44l234 0 0-15-234 0z m0-132l190 0 0-15-190 0z m0-44l190 0 0-15-190 0z m0 88l190 0 0-15-190 0z m220 0l102 0 0-15-102 0z m0-44l102 0 0-15-102 0z m0-44l102 0 0-15-102 0z m-308 0l14 0 0-59-14 0z m44 0l14 0 0-59-14 0z m-44 88l14 0 0-59-14 0z m44 0l14 0 0-59-14 0z m-44 88l14 0 0-59-14 0z m44 0l14 0 0-59-14 0z m-14 29l-50 0 0 59 50 0z m-36 15l22 0 0 29-22 0z"/>
<glyph unicode="&#108;" d="M469 167l0 176-81 0 0 114c0 33 30 34 33 34l0 14-243 0c-37 0-47-31-47-48l0-114-81 0 0-216 81 0 0-37 85-85 172 0 0 122 81 0 0 13-81 0 0 68 40 0 0 13-337 0 0-13 40 0 0-68-67 0 0 189 391 0 0-162z m-315-81l58 0 0-58z m-9 122l229 0 0-189-148 0 0 81-81 0 0 27 0 0 0 13 0 0z m0 135l0 114c0 4 1 34 33 34l209 0c-7-7-13-18-13-34l0-114-229 0z m229-68c0-15 12-27 27-27 15 0 27 12 27 27 0 15-12 27-27 27-15 0-27-12-27-27z m41 0c0-7-6-13-14-13-7 0-13 6-13 13 0 8 6 14 13 14 8 0 14-6 14-14z m-162-175l94 0 0-14-94 0z m-81 40l175 0 0-13-175 0z m0 41l175 0 0-14-175 0z"/>
<glyph unicode="&#109;" d="M102 16l59 182-155 112 191 0 60 182 59-182 191 0-167-121-10 14 123 90-150 0-46 142-47-142-149 0 121-88-47-143 122 88 150-109-10-14-140 101z"/>
<glyph unicode="&#110;" d="M463 427l0 0 0 0-77 77 0 0 0 0-4 4-216 0 0-57 17 0 0 41 187 0 0-81 81 0 0-285 17 0 0 296z m-77 54l54-54-54 0z m-16-380l98 0 0-16-98 0z m-29 245l0 0-77 76 0 0 0 0-5 5-215 0 0-423 302 0 0 16-285 0 0 391 187 0 0-82 81 0 0-285 17 0 0 297-5 4 0 1z m-77 53l54-53-54 0z m-177-53l136 0 0-17-136 0z m-2-41l220 0 0-16-220 0z m0-41l220 0 0-16-220 0z m0-41l220 0 0-16-220 0z m0-40l220 0 0-17-220 0z m0-41l179 0 0-16-179 0z"/>
<glyph unicode="&#111;" d="M435 52l0 354-102 102-256 0 0-504 358 0 0 16-342 0 0 472 228 0 0-98 98 0 0-342z m-98 429l70-70-70 0z m-209-70l161 0 0-17-161 0z m-2-49l260 0 0-16-260 0z m0-49l260 0 0-16-260 0z m0-49l260 0 0-16-260 0z m0-49l260 0 0-16-260 0z m0-49l211 0 0-16-211 0z"/>
<glyph unicode="&#112;" d="M149 220l273 182-83 0 68 90-13 10-87-116 62 0-162-108 83 124-47 0 60 80 59 0 0 17-67 0-85-113 50 0z m356-161l0 257-160 0 0-16 129 0-218-175-176 141-10-13 113-90-160-128 0 265 144 0 0 16-160 0 0-306 498 0 0 16-5 0-171 137 160 128 0-232z m-31-33l-436 0 158 127 60-48 60 48z"/>
<glyph unicode="&#113;" d="M505 143l0 257-498 0 0-306 498 0 0 17-5 0-171 136 160 129 0-233z m-31 241l-218-175-176 141-10-12 113-91-160-128 0 265z m0-273l-436 0 158 126 60-48 60 48z"/>
<glyph unicode="&#114;" d="M431 427l-6 6-13-12 6-6c45-46 70-106 70-169 0-64-25-124-70-169l-6-7 13-12 6 6c48 49 75 113 75 182 0 68-27 133-75 181z m-76-64l-13-12 6-7c27-26 41-61 41-98 0-38-14-73-41-99l-6-7 13-12 6 6c30 30 46 69 46 112 0 42-16 81-46 111z m-71-70l-12-12 6-7c8-7 12-18 12-28 0-11-4-21-12-29l-6-6 12-13 7 6c11 11 17 26 17 42 0 15-6 30-17 41z m-260-119l0 143 102 0 94 95 0-304 18 0 0 347-120-120-112 0 0-179 112 0 111-111 13 13-116 116z"/>
<glyph unicode="&#115;" d="M264 154l0 232-16 0 0-232-89 89-12-11 109-109 109 109-12 11z m-8 354c-139 0-252-113-252-252 0-139 113-252 252-252 139 0 252 113 252 252 0 139-113 252-252 252z m0-488c-130 0-236 106-236 236 0 130 106 236 236 236 130 0 236-106 236-236 0-130-106-236-236-236z"/>
<glyph unicode="&#116;" d="M346 5l-180 0 0 324-162 0 0 179 504 0 0-179-162 0 0-264-18 0 0 282 162 0 0 143-468 0 0-143 162 0 0-324 162 0z"/>
<glyph unicode="&#117;" d="M5 160l178 0-40-120 160 120 77 0 0 14-81 0-129-97 32 97-183 0 0 203 348 0 0-181 13 0 0 194-375 0z m73 158l230 0 0-13-230 0z m0-36l230 0 0-13-230 0z m0-36l230 0 0-14-230 0z m334-9l95 0 0-14-95 0z m-244 226l0-54 13 0 0 40 312 0 0-194 14 0 0 208z m244-149l39 0 0-14-39 0z m0 40l39 0 0-13-39 0z m0 41l39 0 0-14-39 0z"/>
<glyph unicode="&#118;" d="M191 15l54 160-241 0 0 309 504 0 0-260-16 0 0 244-472 0 0-276 247 0-44-133 177 133 108 0 0-17-103 0z m-90 372l310 0 0-17-310 0z m0-49l310 0 0-16-310 0z m0-49l310 0 0-16-310 0z"/>
<glyph unicode="&#119;" d="M312 7l-112 0 0 56c-14 4-28 10-41 17l-40-40-79 79 40 40c-7 13-13 27-17 41l-56 0 0 112 56 0c4 14 10 28 17 41l-40 40 79 79 40-40c13 7 27 13 41 17l0 56 112 0 0-56c14-4 28-10 41-17l40 40 79-79-40-40c7-13 13-27 17-41l56 0 0-112-56 0c-4-14-10-28-17-41l40-40-79-79-40 40c-15-9-31-15-47-19l-7-2-5 16 8 2c17 4 33 11 48 20l5 3 38-37 56 56-37 38 3 5c9 15 16 31 20 48l2 6 52 0 0 80-52 0-2 6c-4 17-11 33-20 48l-3 5 37 38-56 56-38-37-5 3c-15 9-31 16-48 20l-6 2 0 52-80 0 0-52-6-2c-17-4-33-11-48-20l-5-3-38 37-56-56 37-38-3-5c-9-15-16-31-20-48l-2-6-52 0 0-80 52 0 2-6c4-17 11-33 20-48l3-5-37-38 56-56 38 37 5-3c15-9 31-16 48-20l6-2 0-52 96 0 0-16z m-56 144c-58 0-105 47-105 105 0 58 47 105 105 105 58 0 105-47 105-105 0-58-47-105-105-105z m0 194c-49 0-89-40-89-89 0-49 40-89 89-89 49 0 89 40 89 89 0 49-40 89-89 89z"/>
<glyph unicode="&#120;" d="M494 62l-119 118c59 80 52 192-20 264-38 38-89 59-143 59-54 0-105-21-144-59-79-80-79-208 0-287 39-39 90-60 144-60 44 0 85 14 120 40l118-119c6-6 14-9 22-9 8 0 16 3 22 9 12 12 12 32 0 44z m-382 138c-55 55-55 145 0 200 27 27 62 41 100 41 38 0 73-14 100-41 55-55 55-145 0-200-27-26-62-41-100-41-38 0-73 15-100 41z"/>
<glyph unicode="&#102;" d="M307 7l-63 0c-59 0-116 57-116 116l0 268c0 59 57 117 116 117l63 0 0-173-9 0c-44-1-45-40-45-45l0-78c0-4 1-44 45-44l9 0 0-9 0-99-18 0 0 90c-23 4-54 19-54 62l0 78c0 43 31 59 54 62l0 138-45 0c-49 0-98-50-98-99l0-268c0-49 49-99 98-99l63 0z m77 0l-59 0 0 161 59 0 0-108-18 0 0 90-23 0 0-126 41 0z m0 328l-59 0 0 173 59 0 0-114-18 0 0 96-23 0 0-137 41 0z"/>
<glyph unicode="&#104;" d="M506 161l0 64-48 32 0 57-65 0 0-14-80 53 0 49c0 4 0 104-56 104-55 0-56-100-56-104l0-49-80-53 0 14-64 0 0-57-48-32 0-64 193 70 10-114-59-47 0-65 104 47 100-45 7 15-107 47-88-39 0 32 59 48-11 132 0 61-16 0 0-55-176-64 0 32 192 129 0 57c0 1 1 88 40 88 39 0 40-87 40-88l0-104 16 0 0 36 177-118 0-32-192 69-12-143 69-55 10 12-62 50 9 114z m-433 137l32 0 0-9-32-21z m336 0l33 0 0-30-33 21z m-179 138l9-13 18 12 19-12 8 13-27 19z"/>
<glyph unicode="&#121;" d="M507 127l0 298-502 0 0-338 502 0 0 13-488 0 0 312 474 0 0-285z m-41 41l0 217-420 0 0-258 420 0 0 14-406 0 0 230 392 0 0-203z m-45-48l45 0 0-13-45 0z m-36 136c0 26-22 47-48 47l-47 0 0-13 47 0c19 0 34-15 34-34 0-19-15-34-34-34l-65 0 34 34-9 10-44-44 0 0 0 0-7-7 7-6 0 0 0 0 44-44 9 10-34 34 65 0c26 0 48 21 48 47z m-170-10l51 51-51 50-9-10 34-34-65 0c-26 0-48-21-48-47 0-26 22-47 48-47l47 0 0 13-47 0c-19 0-34 15-34 34 0 19 15 34 34 34l65 0-34-34z"/>
</font>
</defs>
</svg>
